<?xml version="1.0" encoding="UTF-8"?>
<svg id="Livello_1" data-name="Livello 1" xmlns="http://www.w3.org/2000/svg" viewBox="0 0 253.45 198.43">
  <defs>
    <style>
      .cls-1 {
        fill: #fff;
      }
    </style>
  </defs>
  <path class="cls-1" d="M117.38,73.09c-22.38,8-44.67,18.29-61.32,28.71-1.09.68-2.16,1.37-3.2,2.05-.17.11-.33.22-.5.34-.9.6-1.79,1.19-2.65,1.79-.24.16-.46.33-.69.49-.78.54-1.54,1.09-2.28,1.63-.27.2-.52.39-.79.59-.68.51-1.35,1.01-1.99,1.52-.28.22-.55.44-.83.66-.6.48-1.18.96-1.75,1.43-.28.24-.56.48-.84.72-.53.46-1.04.91-1.54,1.36-.28.25-.55.5-.81.76-.46.44-.91.87-1.34,1.3-.26.26-.52.52-.77.78-.4.42-.79.83-1.16,1.25-.24.27-.48.54-.7.8-.34.4-.67.8-.98,1.2-.21.27-.43.54-.63.81-.29.39-.55.78-.81,1.16-.18.27-.37.54-.53.81-.23.38-.44.75-.65,1.13-.15.27-.3.54-.43.8-.18.37-.33.74-.48,1.1-.11.26-.23.53-.32.79-.13.37-.22.73-.31,1.09-.07.25-.15.5-.19.75-.07.37-.1.73-.14,1.09-.02.23-.06.47-.07.69-.01.39.03.77.06,1.16.02.19.01.38.04.57.09.57.22,1.12.42,1.67,2.34,6.53,11.57,8.76,21.87,9.06,1.15.03,2.31.04,3.48.03.63,0,1.26-.03,1.89-.05.51-.01,1.02-.02,1.52-.04.93-.04,1.85-.09,2.77-.15.18-.01.37-.02.55-.03.58-.04,1.16-.09,1.73-.14l45.49-28.38c1.88-1.17,3.22-3.05,3.72-5.21l5.55-23.87c1.38-5.88,4.41-11.18,8.65-15.35-3.03,1-6.05,2.04-9.04,3.11ZM65.09,138.28c-18.04,1.73-29.94-.37-31.82-5.63-1.97-5.5,6.62-15.15,23.23-25.92,1.21,11.47,5.18,22.11,11.21,31.27-.88.1-1.76.2-2.62.28Z"/>
  <path class="cls-1" d="M224.71,66.63c-.02-.19-.01-.38-.04-.57-.09-.56-.22-1.11-.41-1.65,0,0,0-.01,0-.02,0,0,0-.01,0-.02-.19-.53-.43-1.03-.71-1.5-.1-.17-.22-.32-.33-.48-.21-.31-.41-.61-.66-.9-.15-.18-.33-.34-.5-.51-.24-.24-.48-.49-.75-.71-.2-.17-.43-.33-.64-.49-.27-.2-.55-.4-.85-.59-.25-.16-.51-.31-.78-.45-.31-.17-.63-.33-.96-.49-.3-.14-.6-.28-.91-.41-.34-.14-.69-.27-1.05-.4-.34-.12-.69-.24-1.05-.36-.36-.11-.74-.21-1.12-.32-.39-.1-.78-.21-1.19-.31-.37-.09-.77-.16-1.15-.23-.45-.09-.89-.18-1.36-.26-.35-.06-.72-.1-1.08-.15-2.03-.28-4.23-.46-6.57-.53-.25,0-.49-.02-.74-.03-.7-.02-1.43-.01-2.16-.01-.34,0-.68,0-1.03,0-.72,0-1.46.03-2.2.06-.38.01-.75.02-1.14.04-.74.03-1.5.08-2.26.12-.4.03-.81.05-1.22.08-.77.05-1.55.12-2.33.19-.2.02-.41.04-.62.06l-44,27.45c-1.86,1.16-3.19,3.01-3.69,5.14l-5.83,24.9c-1.38,5.88-4.4,11.17-8.64,15.33,3.1-1.02,6.21-2.09,9.33-3.21,22.33-7.98,44.58-18.24,61.22-28.64h0c1.14-.71,2.25-1.43,3.34-2.14.11-.08.22-.15.34-.23.96-.63,1.9-1.27,2.82-1.9.19-.13.37-.26.56-.39.82-.58,1.63-1.15,2.41-1.72.23-.17.46-.34.69-.52.71-.53,1.41-1.06,2.09-1.59.26-.2.5-.4.75-.6.62-.5,1.24-1,1.83-1.49.26-.22.52-.44.78-.66.55-.47,1.08-.94,1.59-1.41.26-.24.51-.48.77-.71.48-.45.94-.9,1.39-1.34.25-.25.49-.5.73-.75.41-.43.81-.86,1.19-1.29.23-.26.46-.51.68-.77.35-.41.69-.82,1.01-1.23.21-.26.41-.52.6-.78.3-.4.57-.8.83-1.19.18-.26.36-.53.52-.79.24-.39.45-.77.66-1.15.14-.26.29-.52.42-.78.18-.38.34-.75.49-1.12.1-.26.22-.51.31-.77.13-.37.22-.74.32-1.1.06-.25.14-.5.19-.74.07-.37.1-.73.14-1.1.02-.23.06-.46.07-.69.01-.39-.03-.77-.06-1.16ZM196.96,91.76c-1.2-11.45-5.15-22.08-11.16-31.24,6.3-.7,11.91-.98,16.67-.84,10.07.3,16.37,2.43,17.71,6.17,1.97,5.5-6.61,15.15-23.22,25.92Z"/>
  <path class="cls-1" d="M179.49,52.32c-12.94-14.55-31.77-23.74-52.77-23.74-38.03,0-69.02,30.06-70.55,67.71,18.6-11.21,41.8-21.12,59.67-27.5,22.46-8.03,45.04-13.8,63.65-16.47Z"/>
  <path class="cls-1" d="M74.02,146.16c12.93,14.51,31.74,23.68,52.71,23.68,38.01,0,68.99-30.02,70.55-67.64-18.6,11.21-41.8,21.12-59.67,27.5-22.66,8.1-44.89,13.84-63.59,16.46Z"/>
</svg>