<?xml version="1.0" encoding="UTF-8"?>
<svg id="Livello_1" data-name="Livello 1" xmlns="http://www.w3.org/2000/svg" viewBox="0 0 253.45 198.43">
  <defs>
    <style>
      .cls-1 {
        fill: #fff;
      }
    </style>
  </defs>
  <path class="cls-1" d="M117.4,73.14c-22.33,7.98-44.59,18.25-61.2,28.65-1.09.68-2.15,1.36-3.19,2.04-.17.11-.33.22-.5.33-.9.6-1.78,1.19-2.64,1.79-.24.16-.46.33-.69.49-.77.54-1.54,1.09-2.27,1.63-.27.2-.52.39-.79.59-.68.51-1.34,1.01-1.99,1.52-.28.22-.55.44-.83.66-.6.48-1.18.95-1.75,1.43-.28.24-.56.48-.83.71-.53.45-1.04.91-1.53,1.36-.28.25-.54.5-.81.75-.46.43-.91.87-1.34,1.3-.26.26-.52.52-.77.78-.4.42-.78.83-1.16,1.25-.24.27-.48.53-.7.8-.34.4-.67.8-.98,1.2-.21.27-.43.54-.62.81-.29.39-.55.78-.81,1.16-.18.27-.37.54-.53.81-.23.38-.44.75-.64,1.13-.15.27-.3.54-.43.8-.18.37-.33.73-.48,1.1-.11.26-.22.53-.32.79-.13.37-.22.72-.31,1.08-.07.25-.15.5-.19.75-.07.37-.1.73-.14,1.09-.02.23-.06.47-.07.69-.01.39.03.77.06,1.16.02.19.01.38.04.57.09.57.22,1.12.42,1.67,2.33,6.52,11.55,8.74,21.82,9.04,1.15.03,2.31.04,3.47.03.63,0,1.25-.03,1.88-.05.51-.01,1.01-.02,1.52-.04.93-.04,1.85-.09,2.77-.15.18-.01.37-.02.55-.03.58-.04,1.15-.09,1.73-.14l45.4-28.32c1.88-1.17,3.21-3.04,3.72-5.2l5.53-23.82c1.37-5.87,4.4-11.16,8.64-15.32-3.02,1-6.04,2.03-9.03,3.1ZM65.22,138.2c-18.01,1.73-29.88-.37-31.76-5.62-1.96-5.49,6.6-15.12,23.18-25.87,1.21,11.45,5.17,22.07,11.19,31.21-.88.1-1.75.2-2.61.28Z"/>
  <path class="cls-1" d="M224.51,66.7c-.02-.19-.01-.38-.04-.57-.09-.56-.22-1.11-.41-1.64,0,0,0-.01,0-.02,0,0,0-.01,0-.02-.19-.53-.43-1.02-.71-1.5-.1-.17-.22-.32-.33-.48-.21-.31-.41-.61-.66-.9-.15-.18-.33-.34-.5-.51-.24-.24-.48-.48-.75-.71-.2-.17-.42-.33-.64-.49-.27-.2-.55-.4-.85-.59-.25-.16-.51-.31-.78-.45-.31-.17-.62-.33-.95-.49-.3-.14-.6-.28-.91-.4-.34-.14-.69-.27-1.05-.4-.34-.12-.68-.24-1.04-.35-.36-.11-.74-.21-1.12-.31-.39-.1-.78-.21-1.19-.3-.37-.09-.76-.16-1.15-.23-.45-.09-.89-.18-1.35-.26-.35-.06-.72-.1-1.08-.15-2.03-.28-4.22-.46-6.56-.53-.25,0-.48-.02-.73-.03-.7-.02-1.43-.01-2.15-.01-.34,0-.68,0-1.02,0-.72,0-1.45.03-2.19.06-.38.01-.75.02-1.14.04-.74.03-1.49.08-2.25.12-.4.03-.81.05-1.22.08-.77.05-1.54.12-2.33.19-.2.02-.41.04-.61.06l-43.91,27.39c-1.86,1.15-3.18,3-3.68,5.13l-5.82,24.85c-1.37,5.87-4.39,11.15-8.62,15.3,3.09-1.02,6.19-2.09,9.31-3.2,22.28-7.96,44.49-18.21,61.1-28.58h0c1.14-.71,2.25-1.42,3.33-2.13.11-.08.22-.15.34-.23.96-.63,1.9-1.27,2.81-1.9.19-.13.37-.26.56-.39.82-.57,1.63-1.15,2.41-1.72.23-.17.46-.34.69-.52.71-.53,1.41-1.06,2.08-1.59.26-.2.5-.4.75-.6.62-.5,1.23-1,1.82-1.49.26-.22.52-.44.77-.66.55-.47,1.08-.94,1.59-1.41.26-.24.51-.47.76-.71.48-.45.94-.9,1.38-1.34.25-.25.49-.5.73-.74.41-.43.81-.86,1.19-1.28.23-.26.46-.51.67-.77.35-.41.68-.82,1.01-1.23.21-.26.41-.52.6-.78.3-.4.57-.79.83-1.19.18-.26.35-.53.52-.79.24-.39.45-.77.66-1.15.14-.26.29-.52.42-.78.18-.38.34-.75.49-1.12.1-.26.22-.51.31-.77.13-.37.22-.73.32-1.1.06-.25.14-.49.19-.74.07-.37.1-.73.14-1.1.02-.23.06-.46.07-.69.01-.39-.03-.77-.06-1.16ZM196.82,91.78c-1.2-11.43-5.14-22.04-11.14-31.18,6.29-.7,11.89-.98,16.63-.84,10.05.3,16.34,2.43,17.67,6.16,1.96,5.49-6.6,15.12-23.17,25.87Z"/>
  <path class="cls-1" d="M179.39,52.42c-12.91-14.52-31.7-23.69-52.66-23.69-37.95,0-68.88,30-70.41,67.58,18.56-11.19,41.72-21.08,59.55-27.45,22.41-8.01,44.95-13.77,63.53-16.44Z"/>
  <path class="cls-1" d="M74.12,146.07c12.91,14.48,31.68,23.63,52.61,23.63,37.93,0,68.85-29.96,70.41-67.51-18.56,11.19-41.72,21.08-59.55,27.45-22.61,8.08-44.8,13.81-63.47,16.43Z"/>
</svg>