<?xml version="1.0" encoding="UTF-8"?>
<svg id="Livello_1" data-name="Livello 1" xmlns="http://www.w3.org/2000/svg" viewBox="0 0 512 512">
  <defs>
    <style>
      .cls-1 {
        fill: #004483;
      }
    </style>
  </defs>
  <path class="cls-1" d="M233.12,192.06c-54.77,19.58-109.35,44.76-150.11,70.27-2.67,1.67-5.28,3.34-7.83,5.01-.42.27-.81.55-1.23.82-2.21,1.46-4.38,2.92-6.48,4.38-.58.4-1.13.8-1.7,1.2-1.9,1.33-3.77,2.66-5.58,3.99-.65.48-1.28.96-1.93,1.44-1.66,1.24-3.3,2.48-4.88,3.72-.69.54-1.36,1.08-2.03,1.62-1.46,1.17-2.9,2.34-4.29,3.51-.7.59-1.37,1.17-2.04,1.75-1.29,1.11-2.55,2.23-3.76,3.33-.68.62-1.34,1.23-1.99,1.85-1.13,1.06-2.22,2.13-3.28,3.18-.64.64-1.27,1.28-1.88,1.92-.98,1.02-1.92,2.04-2.83,3.06-.59.66-1.17,1.31-1.72,1.96-.84.99-1.63,1.97-2.4,2.94-.52.66-1.04,1.33-1.53,1.99-.71.96-1.36,1.9-1.99,2.85-.44.66-.9,1.33-1.3,1.99-.58.93-1.08,1.85-1.58,2.76-.36.66-.73,1.32-1.05,1.97-.44.91-.81,1.8-1.17,2.69-.26.64-.55,1.29-.77,1.93-.31.9-.53,1.78-.76,2.66-.16.61-.36,1.23-.48,1.84-.18.9-.25,1.79-.33,2.67-.05.57-.16,1.14-.17,1.7-.03.96.07,1.9.15,2.84.04.46.02.94.1,1.4.21,1.39.55,2.75,1.02,4.09,5.72,16,28.32,21.44,53.52,22.18,2.81.08,5.65.1,8.51.08,1.54-.01,3.08-.07,4.62-.11,1.24-.03,2.49-.05,3.73-.1,2.27-.09,4.53-.22,6.79-.37.45-.03.9-.05,1.35-.08,1.43-.1,2.83-.22,4.24-.33l111.35-69.46c4.61-2.88,7.88-7.46,9.11-12.75l13.57-58.43c3.37-14.4,10.8-27.36,21.18-37.57-7.42,2.45-14.81,4.99-22.14,7.61ZM105.14,351.62c-44.16,4.25-73.28-.91-77.89-13.79-4.81-13.47,16.19-37.08,56.85-63.45,2.97,28.07,12.67,54.12,27.44,76.55-2.15.24-4.3.49-6.4.69Z"/>
  <path class="cls-1" d="M495.84,176.25c-.04-.46-.02-.94-.1-1.4-.21-1.37-.54-2.71-1.01-4.03,0-.02,0-.04-.01-.05,0-.02-.02-.03-.02-.05-.46-1.29-1.05-2.51-1.74-3.68-.24-.41-.55-.77-.81-1.17-.51-.75-1.01-1.5-1.61-2.2-.38-.44-.81-.84-1.22-1.26-.59-.6-1.18-1.19-1.84-1.74-.5-.42-1.04-.81-1.58-1.21-.67-.5-1.36-.98-2.09-1.45-.61-.38-1.26-.75-1.91-1.11-.75-.41-1.53-.82-2.34-1.2-.72-.34-1.47-.68-2.23-.99-.83-.34-1.69-.67-2.56-.98-.84-.3-1.68-.6-2.56-.87-.88-.28-1.81-.52-2.74-.77-.96-.26-1.91-.52-2.91-.75-.91-.21-1.88-.39-2.83-.57-1.1-.21-2.18-.44-3.32-.63-.85-.14-1.76-.24-2.64-.36-4.98-.69-10.35-1.13-16.09-1.31-.61-.02-1.19-.06-1.8-.07-1.72-.04-3.5-.03-5.28-.03-.84,0-1.66,0-2.51,0-1.76.02-3.56.08-5.37.14-.93.03-1.85.06-2.79.1-1.81.08-3.66.18-5.52.3-.99.06-1.98.12-2.98.19-1.88.13-3.79.29-5.71.46-.5.04-1,.09-1.51.14l-107.69,67.18c-4.56,2.83-7.81,7.36-9.03,12.58l-14.27,60.96c-3.37,14.38-10.77,27.35-21.15,37.53,7.58-2.5,15.19-5.12,22.83-7.85,54.66-19.53,109.13-44.65,149.85-70.1h0c2.79-1.74,5.51-3.49,8.16-5.23.28-.18.55-.37.83-.55,2.35-1.55,4.65-3.1,6.89-4.66.46-.32.91-.64,1.36-.96,2.01-1.41,3.99-2.82,5.9-4.22.57-.42,1.12-.84,1.69-1.26,1.74-1.3,3.46-2.6,5.11-3.9.63-.49,1.23-.98,1.84-1.47,1.53-1.22,3.03-2.44,4.47-3.66.65-.54,1.27-1.09,1.9-1.63,1.34-1.16,2.64-2.31,3.9-3.45.64-.58,1.26-1.16,1.88-1.74,1.17-1.1,2.3-2.2,3.39-3.29.61-.61,1.2-1.22,1.79-1.82,1.01-1.05,1.98-2.1,2.92-3.15.56-.63,1.12-1.26,1.66-1.89.86-1.01,1.68-2.02,2.47-3.02.5-.64,1.01-1.28,1.48-1.92.72-.98,1.39-1.95,2.04-2.91.43-.64.87-1.29,1.27-1.93.59-.95,1.1-1.88,1.61-2.82.35-.64.71-1.28,1.02-1.92.45-.92.82-1.83,1.19-2.74.26-.63.54-1.26.75-1.88.32-.91.54-1.8.77-2.7.16-.6.35-1.21.47-1.81.18-.91.25-1.8.34-2.69.05-.56.16-1.13.17-1.69.03-.96-.07-1.9-.15-2.84ZM427.92,237.76c-2.94-28.04-12.6-54.06-27.31-76.47,15.43-1.72,29.16-2.41,40.8-2.06,24.64.73,40.08,5.95,43.35,15.1,4.81,13.47-16.19,37.07-56.83,63.44Z"/>
  <path class="cls-1" d="M385.16,141.22c-31.66-35.61-77.76-58.1-129.16-58.1-93.08,0-168.95,73.58-172.7,165.74,45.53-27.44,102.32-51.69,146.05-67.32,54.97-19.65,110.25-33.77,155.81-40.31Z"/>
  <path class="cls-1" d="M126.98,370.93c31.66,35.52,77.7,57.95,129.02,57.95,93.03,0,168.87-73.49,172.7-165.58-45.53,27.44-102.32,51.69-146.05,67.33-55.46,19.82-109.88,33.87-155.67,40.3Z"/>
</svg>