<?xml version="1.0" encoding="UTF-8"?>
<svg id="Livello_1" data-name="Livello 1" xmlns="http://www.w3.org/2000/svg" viewBox="0 0 253.45 198.43">
  <defs>
    <style>
      .cls-1 {
        fill: #004483;
      }
    </style>
  </defs>
  <path class="cls-1" d="M117.35,73c-22.45,8.02-44.83,18.35-61.53,28.8-1.09.68-2.16,1.37-3.21,2.06-.17.11-.33.22-.5.34-.9.6-1.79,1.2-2.66,1.8-.24.16-.46.33-.7.49-.78.55-1.54,1.09-2.29,1.64-.27.2-.53.39-.79.59-.68.51-1.35,1.02-2,1.52-.28.22-.56.44-.83.67-.6.48-1.19.96-1.76,1.44-.29.24-.56.48-.84.72-.53.46-1.05.91-1.54,1.37-.28.25-.55.51-.82.76-.46.44-.91.87-1.34,1.3-.26.26-.52.53-.77.79-.4.42-.79.84-1.16,1.25-.24.27-.48.54-.71.8-.35.4-.67.81-.99,1.21-.21.27-.43.54-.63.82-.29.39-.56.78-.82,1.17-.18.27-.37.54-.53.81-.24.38-.44.76-.65,1.13-.15.27-.3.54-.43.81-.18.37-.33.74-.48,1.1-.11.26-.23.53-.32.79-.13.37-.22.73-.31,1.09-.07.25-.15.51-.2.76-.07.37-.1.73-.14,1.1-.02.23-.06.47-.07.7-.01.39.03.78.06,1.16.02.19.01.39.04.57.09.57.22,1.13.42,1.68,2.34,6.56,11.61,8.79,21.94,9.09,1.15.03,2.32.04,3.49.03.63,0,1.26-.03,1.89-.05.51-.01,1.02-.02,1.53-.04.93-.04,1.86-.09,2.78-.15.18-.01.37-.02.55-.03.59-.04,1.16-.09,1.74-.14l45.65-28.47c1.89-1.18,3.23-3.06,3.74-5.23l5.56-23.95c1.38-5.9,4.43-11.22,8.68-15.4-3.04,1-6.07,2.04-9.07,3.12ZM64.88,138.41c-18.1,1.74-30.04-.37-31.93-5.65-1.97-5.52,6.64-15.2,23.3-26.01,1.22,11.51,5.19,22.19,11.25,31.38-.88.1-1.76.2-2.62.28Z"/>
  <path class="cls-1" d="M225.04,66.52c-.02-.19-.01-.39-.04-.57-.09-.56-.22-1.11-.41-1.65,0,0,0-.01,0-.02,0,0,0-.01,0-.02-.19-.53-.43-1.03-.71-1.51-.1-.17-.22-.32-.33-.48-.21-.31-.42-.61-.66-.9-.15-.18-.33-.35-.5-.52-.24-.24-.48-.49-.75-.72-.2-.17-.43-.33-.65-.49-.28-.2-.56-.4-.86-.59-.25-.16-.51-.31-.78-.45-.31-.17-.63-.33-.96-.49-.3-.14-.6-.28-.92-.41-.34-.14-.69-.27-1.05-.4-.34-.12-.69-.24-1.05-.36-.36-.11-.74-.21-1.12-.32-.39-.11-.78-.21-1.19-.31-.37-.09-.77-.16-1.16-.23-.45-.09-.89-.18-1.36-.26-.35-.06-.72-.1-1.08-.15-2.04-.28-4.24-.46-6.6-.54-.25,0-.49-.02-.74-.03-.71-.02-1.44-.01-2.17-.01-.34,0-.68,0-1.03,0-.72,0-1.46.03-2.2.06-.38.01-.76.02-1.14.04-.74.03-1.5.08-2.26.12-.41.03-.81.05-1.22.08-.77.06-1.55.12-2.34.19-.2.02-.41.04-.62.06l-44.14,27.54c-1.87,1.16-3.2,3.02-3.7,5.16l-5.85,24.99c-1.38,5.9-4.42,11.21-8.67,15.38,3.11-1.03,6.23-2.1,9.36-3.22,22.4-8.01,44.73-18.3,61.42-28.74h0c1.14-.71,2.26-1.43,3.35-2.15.11-.08.22-.15.34-.23.96-.64,1.91-1.27,2.82-1.91.19-.13.37-.26.56-.39.82-.58,1.63-1.15,2.42-1.73.24-.17.46-.35.69-.52.71-.53,1.42-1.07,2.09-1.6.26-.2.5-.4.76-.6.63-.5,1.24-1,1.83-1.5.26-.22.52-.44.78-.67.55-.47,1.08-.95,1.6-1.42.26-.24.52-.48.77-.72.48-.45.94-.9,1.39-1.35.25-.25.49-.5.73-.75.42-.43.81-.86,1.2-1.29.23-.26.46-.52.68-.77.35-.42.69-.83,1.01-1.24.21-.26.41-.53.61-.79.3-.4.57-.8.83-1.19.18-.26.36-.53.52-.79.24-.39.45-.77.66-1.16.14-.26.29-.53.42-.79.19-.38.34-.75.49-1.12.1-.26.22-.52.31-.77.13-.37.22-.74.32-1.11.06-.25.14-.5.19-.74.07-.37.1-.74.14-1.1.02-.23.06-.46.07-.69.01-.39-.03-.78-.06-1.16ZM197.2,91.74c-1.21-11.49-5.17-22.16-11.2-31.35,6.32-.7,11.95-.99,16.72-.85,10.1.3,16.43,2.44,17.77,6.19,1.97,5.52-6.64,15.2-23.3,26Z"/>
  <path class="cls-1" d="M179.67,52.16c-12.98-14.6-31.87-23.82-52.95-23.82-38.16,0-69.26,30.16-70.79,67.94,18.66-11.25,41.94-21.19,59.87-27.6,22.53-8.05,45.19-13.84,63.87-16.52Z"/>
  <path class="cls-1" d="M73.84,146.32c12.98,14.56,31.85,23.76,52.89,23.76,38.13,0,69.22-30.12,70.79-67.87-18.66,11.25-41.94,21.19-59.87,27.6-22.74,8.13-45.04,13.88-63.81,16.52Z"/>
</svg>