<?xml version="1.0" encoding="UTF-8"?>
<svg id="Livello_1" data-name="Livello 1" xmlns="http://www.w3.org/2000/svg" viewBox="0 0 588.73 198.43">
  <defs>
    <style>
      .cls-1 {
        fill: #004483;
      }

      .cls-2 {
        fill: #35a8e0;
      }
    </style>
  </defs>
  <g>
    <path class="cls-2" d="M58.89,170.08h-4.35l3.49-14.99-9.19,14.99h-5.19l-2.31-15.33-3.57,15.33h-4.21l4.57-19.62h6.74l2.3,15.52,9.29-15.52h7l-4.57,19.62Z"/>
    <path class="cls-2" d="M84.63,170.08h-5.04l-.66-4.46h-8.33l-2.85,4.46h-4.99l12.84-19.62h4.93l4.11,19.62ZM78.17,162.19l-1.13-6.91-4.26,6.91h5.39Z"/>
    <path class="cls-2" d="M109.53,170.08h-5.7l-3.45-7.66h-5.44l-1.78,7.66h-4.78l4.57-19.62h14.76c1.67,0,2.91.63,3.71,1.89.8,1.26,1,2.75.6,4.47-.32,1.36-1.06,2.52-2.22,3.47-1.16.95-2.49,1.55-3.99,1.79l3.73,8ZM106.24,156.62c.21-.91.03-1.61-.56-2.11s-1.47-.74-2.67-.74h-6.05l-1.27,5.47h6.2c.9,0,1.76-.19,2.56-.59,1-.48,1.6-1.16,1.8-2.04Z"/>
    <path class="cls-2" d="M119.07,170.08h-5.39l4.57-19.62h5.39l-4.57,19.62Z"/>
    <path class="cls-2" d="M146.11,170.08h-6.4l-6.36-14.51-3.38,14.51h-4.81l4.57-19.62h6.48l6.15,14.71,3.42-14.71h4.9l-4.57,19.62Z"/>
    <path class="cls-2" d="M170.52,170.08h-9.83c-1.52,0-2.9-.34-4.15-1.01-1.35-.73-2.24-1.89-2.66-3.48-.43-1.59-.42-3.34.03-5.25.44-1.89,1.22-3.6,2.35-5.14,1.23-1.67,2.69-2.88,4.36-3.65.92-.41,1.78-.7,2.58-.87.8-.17,1.69-.25,2.67-.25h9.11l-.81,3.48h-8.42c-.75,0-1.4.1-1.96.29-.55.2-1.14.55-1.76,1.05s-1.08,1-1.38,1.47c-.3.48-.54,1.07-.7,1.78h13.26l-.81,3.48h-13.2c-.15.64-.19,1.19-.13,1.67s.26.97.59,1.47c.33.51.71.89,1.14,1.15.43.26.98.39,1.65.39h8.85l-.79,3.4Z"/>
  </g>
  <path class="cls-1" d="M335.53,138.68h-21.72l13.33-57.33h-1.35c-3.78,0-7.07,2.61-7.92,6.29l-11.87,51.04h-21.72l13.33-57.33h-1.35c-3.78,0-7.07,2.61-7.92,6.29l-11.87,51.04h-21.72l13.33-57.33c2.88-12.39,13.92-21.16,26.64-21.16h59.07l-18.25,78.49Z"/>
  <path class="cls-1" d="M265.18,60.2l-4.92,21.16h-33.01c-3.78,0-7.07,2.61-7.92,6.29l-.28,1.22h39.47l-4.92,21.15h-33.01c-3.78,0-7.07,2.61-7.92,6.29l-.28,1.22h39.47l-4.92,21.16h-37.29c-12.22,0-21.26-11.38-18.49-23.28l7.92-34.05c2.88-12.39,13.92-21.16,26.64-21.16h39.48Z"/>
  <path class="cls-1" d="M149.46,60.2h46.71l-4.92,21.16h-23.61l-13.33,57.33h-21.71l13.33-57.33h-22.54c-2.25,0-3.1-2.95-1.19-4.15l27.27-17.01Z"/>
  <path class="cls-1" d="M78,81.76c1.89-8.06,6.83-15.12,13.85-19.49,10.42-6.48,22.45-9.92,34.73-9.92h14.2c2.23,0,3.07,2.92,1.17,4.1l-37.16,23.18c-1.85,1.15-3.15,3.02-3.65,5.14l-5.74,24.69c-1.82,7.78-6.51,14.69-13.24,19.01-10.4,6.68-22.5,10.22-34.85,10.22h-15.9c-2.24,0-3.08-2.93-1.18-4.12l38.6-24.08c1.85-1.15,3.16-2.99,3.66-5.11l5.51-23.61Z"/>
  <g>
    <path class="cls-1" d="M452.13,72.86c-22.38,8-44.68,18.29-61.33,28.71-1.09.68-2.16,1.37-3.2,2.05-.17.11-.33.22-.5.34-.9.6-1.79,1.19-2.65,1.79-.24.16-.46.33-.69.49-.78.54-1.54,1.09-2.28,1.63-.27.2-.52.39-.79.59-.68.51-1.35,1.01-1.99,1.52-.28.22-.55.44-.83.66-.6.48-1.19.96-1.75,1.43-.28.24-.56.48-.84.72-.53.46-1.04.91-1.54,1.36-.28.25-.55.5-.81.76-.46.44-.91.87-1.34,1.3-.26.26-.52.52-.77.78-.4.42-.79.83-1.16,1.25-.24.27-.48.54-.7.8-.34.4-.67.8-.98,1.2-.21.27-.43.54-.63.81-.29.39-.55.78-.81,1.16-.18.27-.37.54-.53.81-.23.38-.44.75-.65,1.13-.15.27-.3.54-.43.8-.18.37-.33.74-.48,1.1-.11.26-.23.53-.32.79-.13.37-.22.73-.31,1.09-.07.25-.15.5-.19.75-.07.37-.1.73-.14,1.09-.02.23-.06.47-.07.69-.01.39.03.77.06,1.16.02.19.01.38.04.57.09.57.22,1.12.42,1.67,2.34,6.54,11.57,8.76,21.87,9.06,1.15.03,2.31.04,3.48.03.63,0,1.26-.03,1.89-.05.51-.01,1.02-.02,1.52-.04.93-.04,1.85-.09,2.77-.15.18-.01.37-.02.55-.03.58-.04,1.16-.09,1.73-.14l45.5-28.38c1.88-1.17,3.22-3.05,3.72-5.21l5.55-23.87c1.38-5.88,4.41-11.18,8.66-15.35-3.03,1-6.05,2.04-9.05,3.11ZM399.84,138.06c-18.05,1.74-29.94-.37-31.82-5.63-1.97-5.5,6.62-15.15,23.23-25.93,1.21,11.47,5.18,22.12,11.21,31.28-.88.1-1.76.2-2.62.28Z"/>
    <path class="cls-1" d="M559.48,66.4c-.02-.19-.01-.38-.04-.57-.09-.56-.22-1.11-.41-1.65,0,0,0-.01,0-.02,0,0,0-.01,0-.02-.19-.53-.43-1.03-.71-1.51-.1-.17-.22-.32-.33-.48-.21-.31-.41-.61-.66-.9-.15-.18-.33-.34-.5-.51-.24-.24-.48-.49-.75-.71-.2-.17-.43-.33-.64-.49-.27-.2-.55-.4-.85-.59-.25-.16-.51-.31-.78-.45-.31-.17-.63-.33-.96-.49-.3-.14-.6-.28-.91-.41-.34-.14-.69-.27-1.05-.4-.34-.12-.69-.24-1.05-.36-.36-.11-.74-.21-1.12-.32-.39-.1-.78-.21-1.19-.31-.37-.09-.77-.16-1.15-.23-.45-.09-.89-.18-1.36-.26-.35-.06-.72-.1-1.08-.15-2.03-.28-4.23-.46-6.58-.53-.25,0-.49-.02-.74-.03-.7-.02-1.43-.01-2.16-.01-.34,0-.68,0-1.03,0-.72,0-1.46.03-2.2.06-.38.01-.75.02-1.14.04-.74.03-1.5.08-2.26.12-.4.03-.81.05-1.22.08-.77.05-1.55.12-2.33.19-.2.02-.41.04-.62.06l-44,27.45c-1.86,1.16-3.19,3.01-3.69,5.14l-5.83,24.91c-1.38,5.88-4.4,11.17-8.64,15.34,3.1-1.02,6.21-2.09,9.33-3.21,22.33-7.98,44.59-18.25,61.23-28.64h0c1.14-.71,2.25-1.43,3.34-2.14.11-.08.22-.15.34-.23.96-.63,1.9-1.27,2.82-1.9.19-.13.37-.26.56-.39.82-.58,1.63-1.15,2.41-1.73.23-.17.46-.34.69-.52.71-.53,1.41-1.06,2.09-1.59.26-.2.5-.4.75-.6.62-.5,1.24-1,1.83-1.49.26-.22.52-.44.78-.67.55-.47,1.08-.94,1.59-1.41.26-.24.51-.48.77-.71.48-.45.94-.9,1.39-1.34.25-.25.49-.5.73-.75.41-.43.81-.86,1.19-1.29.23-.26.46-.51.68-.77.35-.41.69-.82,1.01-1.23.21-.26.41-.52.6-.78.3-.4.57-.8.83-1.19.18-.26.36-.53.52-.79.24-.39.45-.77.66-1.15.14-.26.29-.52.42-.78.18-.38.34-.75.49-1.12.1-.26.22-.51.31-.77.13-.37.22-.74.32-1.1.06-.25.14-.5.19-.74.07-.37.1-.73.14-1.1.02-.23.06-.46.07-.69.01-.39-.03-.77-.06-1.16ZM531.73,91.54c-1.2-11.46-5.15-22.09-11.16-31.25,6.3-.7,11.92-.98,16.67-.84,10.07.3,16.38,2.43,17.71,6.17,1.97,5.5-6.61,15.15-23.22,25.92Z"/>
    <path class="cls-1" d="M514.26,52.09c-12.94-14.55-31.77-23.74-52.78-23.74-38.04,0-69.03,30.06-70.57,67.72,18.6-11.21,41.81-21.12,59.68-27.51,22.46-8.03,45.05-13.8,63.66-16.47Z"/>
    <path class="cls-2" d="M408.76,145.95c12.94,14.52,31.75,23.68,52.72,23.68,38.01,0,69-30.03,70.57-67.66-18.6,11.21-41.81,21.12-59.68,27.51-22.66,8.1-44.9,13.84-63.61,16.47Z"/>
  </g>
</svg>