<?xml version="1.0" encoding="UTF-8"?>
<svg id="Livello_1" data-name="Livello 1" xmlns="http://www.w3.org/2000/svg" viewBox="0 0 588.73 198.43">
  <defs>
    <style>
      .cls-1 {
        fill: #fff;
      }
    </style>
  </defs>
  <g>
    <path class="cls-1" d="M52.51,170.08h-9.83c-1.52,0-2.9-.34-4.15-1.01-1.35-.73-2.24-1.89-2.66-3.48-.43-1.59-.42-3.34.03-5.25.44-1.89,1.22-3.6,2.35-5.14,1.23-1.67,2.69-2.88,4.37-3.65.92-.41,1.78-.7,2.58-.87.8-.17,1.69-.25,2.67-.25h9.11l-.81,3.48h-8.42c-.75,0-1.4.1-1.96.29-.55.2-1.14.55-1.76,1.05s-1.08,1-1.38,1.47c-.3.48-.54,1.07-.7,1.78h13.26l-.81,3.48h-13.2c-.15.64-.19,1.19-.13,1.67s.26.97.59,1.47c.33.51.72.89,1.15,1.15.43.26.98.39,1.65.39h8.85l-.79,3.4Z"/>
    <path class="cls-1" d="M83.47,170.08h-4.35l3.49-14.99-9.2,14.99h-5.19l-2.31-15.33-3.57,15.33h-4.21l4.57-19.62h6.74l2.3,15.53,9.29-15.53h7.01l-4.57,19.62Z"/>
    <path class="cls-1" d="M112.25,163.97c-.4,1.72-1.32,3.16-2.77,4.34-1.45,1.18-3.07,1.76-4.88,1.76h-14.27l.82-3.51h11.76c.79,0,1.49-.18,2.11-.54.71-.41,1.15-.98,1.32-1.69.39-1.68-.63-2.51-3.05-2.51h-5.94c-1.71,0-3.09-.51-4.14-1.54-1.05-1.03-1.39-2.33-1.02-3.92.41-1.75,1.37-3.18,2.88-4.27,1.51-1.09,3.3-1.64,5.35-1.64h13.63l-.78,3.37h-12.02c-.54,0-1.13.22-1.78.66-.65.44-1.04.95-1.18,1.55-.16.67-.02,1.23.4,1.69.42.46,1.01.68,1.76.68h6.54c2.04,0,3.52.51,4.44,1.53.93,1.02,1.19,2.37.8,4.05Z"/>
  </g>
  <path class="cls-1" d="M335.52,138.66h-21.72l13.33-57.32h-1.35c-3.78,0-7.07,2.61-7.92,6.29l-11.87,51.03h-21.72l13.33-57.32h-1.35c-3.78,0-7.07,2.61-7.92,6.29l-11.87,51.03h-21.72l13.33-57.32c2.88-12.39,13.92-21.15,26.63-21.15h59.06l-18.25,78.47Z"/>
  <path class="cls-1" d="M265.18,60.19l-4.92,21.15h-33.01c-3.78,0-7.07,2.61-7.92,6.29l-.28,1.22h39.47l-4.92,21.15h-33.01c-3.78,0-7.07,2.61-7.92,6.29l-.28,1.22h39.47l-4.92,21.15h-37.28c-12.22,0-21.26-11.38-18.49-23.28l7.92-34.04c2.88-12.39,13.92-21.15,26.63-21.15h39.47Z"/>
  <path class="cls-1" d="M149.48,60.19h46.7l-4.92,21.15h-23.61l-13.33,57.32h-21.71l13.33-57.32h-22.54c-2.25,0-3.1-2.95-1.19-4.15l27.26-17.01Z"/>
  <path class="cls-1" d="M78.05,81.75c1.89-8.06,6.82-15.11,13.85-19.49,10.42-6.48,22.45-9.92,34.72-9.92h14.2c2.23,0,3.07,2.92,1.17,4.1l-37.15,23.18c-1.85,1.15-3.15,3.02-3.65,5.14l-5.74,24.68c-1.82,7.78-6.51,14.69-13.24,19-10.4,6.68-22.49,10.22-34.84,10.22h-15.9c-2.24,0-3.08-2.93-1.18-4.12l38.59-24.07c1.85-1.15,3.16-2.99,3.66-5.11l5.51-23.61Z"/>
  <g>
    <path class="cls-1" d="M452.1,72.85c-22.38,8-44.67,18.29-61.32,28.71-1.09.68-2.16,1.37-3.2,2.05-.17.11-.33.22-.5.34-.9.6-1.79,1.19-2.65,1.79-.24.16-.46.33-.69.49-.78.54-1.54,1.09-2.28,1.63-.27.2-.52.39-.79.59-.68.51-1.35,1.01-1.99,1.52-.28.22-.55.44-.83.66-.6.48-1.18.96-1.75,1.43-.28.24-.56.48-.84.72-.53.46-1.04.91-1.54,1.36-.28.25-.55.5-.81.76-.46.44-.91.87-1.34,1.3-.26.26-.52.52-.77.78-.4.42-.79.83-1.16,1.25-.24.27-.48.54-.7.8-.34.4-.67.8-.98,1.2-.21.27-.43.54-.63.81-.29.39-.55.78-.81,1.16-.18.27-.37.54-.53.81-.23.38-.44.75-.65,1.13-.15.27-.3.54-.43.8-.18.37-.33.74-.48,1.1-.11.26-.23.53-.32.79-.13.37-.22.73-.31,1.09-.07.25-.15.5-.19.75-.07.37-.1.73-.14,1.09-.02.23-.06.47-.07.69-.01.39.03.77.06,1.16.02.19.01.38.04.57.09.57.22,1.12.42,1.67,2.34,6.53,11.57,8.76,21.87,9.06,1.15.03,2.31.04,3.48.03.63,0,1.26-.03,1.89-.05.51-.01,1.02-.02,1.52-.04.93-.04,1.85-.09,2.77-.15.18-.01.37-.02.55-.03.58-.04,1.16-.09,1.73-.14l45.49-28.38c1.88-1.17,3.22-3.05,3.72-5.21l5.55-23.87c1.38-5.88,4.41-11.18,8.65-15.35-3.03,1-6.05,2.04-9.04,3.11ZM399.81,138.04c-18.04,1.73-29.94-.37-31.82-5.63-1.97-5.5,6.62-15.15,23.23-25.92,1.21,11.47,5.18,22.11,11.21,31.27-.88.1-1.76.2-2.62.28Z"/>
    <path class="cls-1" d="M559.43,66.39c-.02-.19-.01-.38-.04-.57-.09-.56-.22-1.11-.41-1.65,0,0,0-.01,0-.02,0,0,0-.01,0-.02-.19-.53-.43-1.03-.71-1.5-.1-.17-.22-.32-.33-.48-.21-.31-.41-.61-.66-.9-.15-.18-.33-.34-.5-.51-.24-.24-.48-.49-.75-.71-.2-.17-.43-.33-.64-.49-.27-.2-.55-.4-.85-.59-.25-.16-.51-.31-.78-.45-.31-.17-.63-.33-.96-.49-.3-.14-.6-.28-.91-.41-.34-.14-.69-.27-1.05-.4-.34-.12-.69-.24-1.05-.36-.36-.11-.74-.21-1.12-.32-.39-.1-.78-.21-1.19-.31-.37-.09-.77-.16-1.15-.23-.45-.09-.89-.18-1.36-.26-.35-.06-.72-.1-1.08-.15-2.03-.28-4.23-.46-6.57-.53-.25,0-.49-.02-.74-.03-.7-.02-1.43-.01-2.16-.01-.34,0-.68,0-1.03,0-.72,0-1.46.03-2.2.06-.38.01-.75.02-1.14.04-.74.03-1.5.08-2.26.12-.4.03-.81.05-1.22.08-.77.05-1.55.12-2.33.19-.2.02-.41.04-.62.06l-44,27.45c-1.86,1.16-3.19,3.01-3.69,5.14l-5.83,24.9c-1.38,5.88-4.4,11.17-8.64,15.33,3.1-1.02,6.21-2.09,9.33-3.21,22.33-7.98,44.58-18.24,61.22-28.64h0c1.14-.71,2.25-1.43,3.34-2.14.11-.08.22-.15.34-.23.96-.63,1.9-1.27,2.82-1.9.19-.13.37-.26.56-.39.82-.58,1.63-1.15,2.41-1.72.23-.17.46-.34.69-.52.71-.53,1.41-1.06,2.09-1.59.26-.2.5-.4.75-.6.62-.5,1.24-1,1.83-1.49.26-.22.52-.44.78-.66.55-.47,1.08-.94,1.59-1.41.26-.24.51-.48.77-.71.48-.45.94-.9,1.39-1.34.25-.25.49-.5.73-.75.41-.43.81-.86,1.19-1.29.23-.26.46-.51.68-.77.35-.41.69-.82,1.01-1.23.21-.26.41-.52.6-.78.3-.4.57-.8.83-1.19.18-.26.36-.53.52-.79.24-.39.45-.77.66-1.15.14-.26.29-.52.42-.78.18-.38.34-.75.49-1.12.1-.26.22-.51.31-.77.13-.37.22-.74.32-1.1.06-.25.14-.5.19-.74.07-.37.1-.73.14-1.1.02-.23.06-.46.07-.69.01-.39-.03-.77-.06-1.16ZM531.68,91.52c-1.2-11.45-5.15-22.08-11.16-31.24,6.3-.7,11.91-.98,16.67-.84,10.07.3,16.37,2.43,17.71,6.17,1.97,5.5-6.61,15.15-23.22,25.92Z"/>
    <path class="cls-1" d="M514.21,52.08c-12.94-14.55-31.77-23.74-52.77-23.74-38.03,0-69.02,30.06-70.55,67.71,18.6-11.21,41.8-21.12,59.67-27.5,22.46-8.03,45.04-13.8,63.65-16.47Z"/>
    <path class="cls-1" d="M408.74,145.92c12.93,14.51,31.74,23.68,52.71,23.68,38.01,0,68.99-30.02,70.55-67.64-18.6,11.21-41.8,21.12-59.67,27.5-22.66,8.1-44.89,13.84-63.59,16.46Z"/>
  </g>
</svg>