<?xml version="1.0" encoding="UTF-8"?>
<svg id="Livello_1" data-name="Livello 1" xmlns="http://www.w3.org/2000/svg" viewBox="0 0 588.73 198.43">
  <defs>
    <style>
      .cls-1 {
        fill: #fff;
      }
    </style>
  </defs>
  <g>
    <path class="cls-1" d="M40.3,169.8h-6.87c-.7,0-1.36-.09-2-.28-1.23-.39-2.07-1.28-2.51-2.68-.4-1.27-.41-2.75-.01-4.43.38-1.63,1.03-3.07,1.94-4.33,1-1.39,2.2-2.33,3.57-2.83,1.07-.39,2.12-.58,3.14-.58h6.23l-.68,2.9h-6.47c-1.05,0-1.95.56-2.68,1.67-.57.87-1.02,2-1.35,3.4-.28,1.18-.27,2.19.01,3.01.32.97.98,1.45,1.98,1.45h6.34l-.63,2.71Z"/>
    <path class="cls-1" d="M61.42,162.2c-.69,2.95-2.02,5.06-3.99,6.34-1.6,1.03-3.71,1.54-6.32,1.54-2.89,0-4.89-.59-5.99-1.78-1.21-1.3-1.48-3.39-.81-6.27.55-2.36,1.65-4.19,3.31-5.51,1.8-1.43,4.16-2.15,7.08-2.15,3.22,0,5.33.69,6.33,2.06.87,1.21,1,3.14.39,5.77ZM57.48,162.12c.35-1.49.26-2.68-.26-3.56-.59-.98-1.68-1.48-3.28-1.48s-2.88.53-3.93,1.58c-.87.88-1.47,2.03-1.8,3.45-.38,1.64-.4,2.84-.04,3.63.49,1.09,1.73,1.63,3.74,1.63,1.69,0,3-.53,3.93-1.58.73-.83,1.28-2.05,1.65-3.67Z"/>
    <path class="cls-1" d="M81.78,169.8h-3.36l2.69-11.57-7.1,11.57h-4l-1.79-11.83-2.75,11.83h-3.25l3.52-15.14h5.21l1.77,11.98,7.17-11.98h5.41l-3.52,15.14Z"/>
    <path class="cls-1" d="M104.41,169.8h-3.36l2.69-11.57-7.1,11.57h-4l-1.79-11.83-2.75,11.83h-3.25l3.52-15.14h5.21l1.77,11.98,7.17-11.98h5.41l-3.52,15.14Z"/>
    <path class="cls-1" d="M121.62,169.8h-7.59c-1.17,0-2.24-.26-3.2-.78-1.04-.56-1.73-1.46-2.05-2.69-.33-1.23-.32-2.58.02-4.05.34-1.46.94-2.78,1.81-3.96.95-1.29,2.07-2.23,3.37-2.82.71-.32,1.38-.54,1.99-.67.62-.13,1.3-.19,2.06-.19h7.03l-.63,2.69h-6.49c-.58,0-1.08.08-1.51.23-.43.15-.88.42-1.36.81-.48.39-.83.77-1.07,1.14-.23.37-.42.83-.54,1.38h10.23l-.63,2.69h-10.19c-.11.49-.15.92-.1,1.29.05.37.2.75.46,1.14.26.39.55.69.88.89.33.2.76.3,1.28.3h6.83l-.61,2.62Z"/>
    <path class="cls-1" d="M140.64,169.8h-4.4l-2.66-5.92h-4.2l-1.38,5.92h-3.69l3.52-15.14h11.39c1.29,0,2.24.49,2.86,1.46.62.97.77,2.12.47,3.45-.24,1.05-.82,1.95-1.71,2.68s-1.92,1.2-3.08,1.38l2.88,6.18ZM138.1,159.41c.16-.7.02-1.25-.43-1.63-.45-.38-1.14-.57-2.06-.57h-4.67l-.98,4.22h4.78c.7,0,1.36-.15,1.97-.45.77-.37,1.23-.9,1.39-1.57Z"/>
    <path class="cls-1" d="M154.88,169.8h-6.87c-.7,0-1.36-.09-2-.28-1.23-.39-2.07-1.28-2.51-2.68-.4-1.27-.41-2.75-.01-4.43.38-1.63,1.03-3.07,1.94-4.33,1-1.39,2.2-2.33,3.57-2.83,1.07-.39,2.12-.58,3.14-.58h6.23l-.68,2.9h-6.47c-1.05,0-1.95.56-2.68,1.67-.57.87-1.02,2-1.35,3.4-.28,1.18-.27,2.19.01,3.01.32.97.98,1.45,1.98,1.45h6.34l-.63,2.71Z"/>
    <path class="cls-1" d="M161.68,169.8h-4.16l3.52-15.14h4.16l-3.52,15.14Z"/>
    <path class="cls-1" d="M179.88,169.8h-3.89l-.51-3.45h-6.43l-2.2,3.45h-3.85l9.91-15.14h3.8l3.17,15.14ZM174.89,163.71l-.87-5.33-3.29,5.33h4.16Z"/>
    <path class="cls-1" d="M193.98,169.8h-5.63c-1.65,0-2.92-.18-3.83-.54-1.15-.46-1.87-1.25-2.16-2.38-.11-.43-.16-.85-.14-1.24s.08-.86.2-1.37l2.24-9.61h4l-2.2,9.47c-.1.43-.14.81-.11,1.14.03.32.14.65.33.96.26.46.62.76,1.08.91s1.06.22,1.82.22h4.98l-.57,2.45Z"/>
    <path class="cls-1" d="M226.58,154.65l-11.01,15.19h-3.89l-3.74-15.19h4.25l2.37,11.53,7.78-11.53h4.25Z"/>
    <path class="cls-1" d="M238.54,169.8h-7.59c-1.17,0-2.24-.26-3.2-.78-1.04-.56-1.73-1.46-2.05-2.69-.33-1.23-.32-2.58.02-4.05.34-1.46.94-2.78,1.81-3.96.95-1.29,2.07-2.23,3.37-2.82.71-.32,1.38-.54,1.99-.67.62-.13,1.3-.19,2.06-.19h7.03l-.62,2.69h-6.5c-.58,0-1.08.08-1.51.23-.43.15-.88.42-1.36.81-.48.39-.83.77-1.07,1.14-.23.37-.41.83-.54,1.38h10.23l-.63,2.69h-10.19c-.11.49-.15.92-.1,1.29.05.37.2.75.46,1.14.26.39.55.69.88.89.33.2.76.3,1.28.3h6.83l-.61,2.62Z"/>
    <path class="cls-1" d="M255.93,169.8h-3.85l1.43-6.15h-7.12l-1.43,6.15h-3.74l3.52-15.14h3.74l-1.46,6.28h7.12l1.46-6.28h3.85l-3.52,15.14Z"/>
    <path class="cls-1" d="M263.14,169.8h-4.16l3.52-15.14h4.16l-3.52,15.14Z"/>
    <path class="cls-1" d="M278.86,169.8h-6.87c-.7,0-1.36-.09-2-.28-1.23-.39-2.07-1.28-2.51-2.68-.4-1.27-.41-2.75-.01-4.43.38-1.63,1.03-3.07,1.94-4.33,1-1.39,2.2-2.33,3.57-2.83,1.07-.39,2.12-.58,3.14-.58h6.23l-.68,2.9h-6.47c-1.05,0-1.95.56-2.68,1.67-.57.87-1.02,2-1.35,3.4-.28,1.18-.27,2.19.01,3.01.32.97.98,1.45,1.98,1.45h6.34l-.63,2.71Z"/>
    <path class="cls-1" d="M294.37,169.8h-5.63c-1.65,0-2.92-.18-3.83-.54-1.15-.46-1.87-1.25-2.16-2.38-.11-.43-.16-.85-.14-1.24s.08-.86.2-1.37l2.24-9.61h4l-2.2,9.47c-.1.43-.14.81-.11,1.14.03.32.14.65.33.96.26.46.62.76,1.08.91s1.06.22,1.82.22h4.98l-.57,2.45Z"/>
    <path class="cls-1" d="M311.23,169.8h-7.59c-1.17,0-2.24-.26-3.2-.78-1.04-.56-1.73-1.46-2.05-2.69-.33-1.23-.32-2.58.02-4.05.34-1.46.94-2.78,1.81-3.96.95-1.29,2.07-2.23,3.37-2.82.71-.32,1.38-.54,1.99-.67.62-.13,1.3-.19,2.06-.19h7.03l-.62,2.69h-6.5c-.58,0-1.08.08-1.51.23-.43.15-.88.42-1.36.81-.48.39-.83.77-1.07,1.14-.23.37-.41.83-.54,1.38h10.23l-.63,2.69h-10.19c-.11.49-.15.92-.1,1.29.05.37.2.75.46,1.14.26.39.55.69.88.89.33.2.76.3,1.28.3h6.83l-.61,2.62Z"/>
    <path class="cls-1" d="M331.41,165.09c-.31,1.33-1.02,2.44-2.14,3.35-1.12.91-2.37,1.36-3.77,1.36h-11.01l.63-2.71h9.08c.61,0,1.15-.14,1.63-.41.55-.32.89-.76,1.02-1.31.3-1.29-.48-1.94-2.35-1.94h-4.58c-1.32,0-2.38-.4-3.19-1.19-.81-.79-1.07-1.8-.79-3.03.32-1.35,1.06-2.45,2.22-3.3,1.17-.84,2.54-1.26,4.13-1.26h10.52l-.61,2.6h-9.28c-.41,0-.87.17-1.38.51-.5.34-.8.73-.91,1.19-.12.52-.02.95.31,1.3.33.35.78.53,1.36.53h5.05c1.57,0,2.71.39,3.43,1.18.71.79.92,1.83.62,3.12Z"/>
  </g>
  <path class="cls-1" d="M336.59,138.44h-21.67l13.3-57.21h-1.35c-3.78,0-7.05,2.6-7.91,6.28l-11.84,50.93h-21.67l13.3-57.21h-1.35c-3.78,0-7.05,2.6-7.91,6.28l-11.84,50.93h-21.68l13.3-57.21c2.87-12.36,13.89-21.11,26.58-21.11h58.94l-18.21,78.32Z"/>
  <path class="cls-1" d="M266.4,60.13l-4.91,21.11h-32.94c-3.78,0-7.05,2.6-7.91,6.28l-.28,1.21h39.39l-4.91,21.11h-32.94c-3.78,0-7.05,2.6-7.91,6.28l-.28,1.22h39.39l-4.91,21.11h-37.21c-12.2,0-21.21-11.36-18.45-23.23l7.9-33.97c2.87-12.36,13.89-21.11,26.58-21.11h39.39Z"/>
  <path class="cls-1" d="M150.93,60.13h46.61l-4.91,21.11h-23.56l-13.3,57.21h-21.67l13.3-57.21h-22.49c-2.25,0-3.09-2.95-1.18-4.14l27.21-16.97Z"/>
  <path class="cls-1" d="M79.63,81.64c1.88-8.04,6.81-15.08,13.82-19.45,10.4-6.47,22.4-9.9,34.65-9.9h14.17c2.23,0,3.06,2.92,1.17,4.09l-37.08,23.13c-1.84,1.14-3.15,3.02-3.64,5.13l-5.73,24.63c-1.82,7.77-6.5,14.66-13.21,18.97-10.38,6.66-22.45,10.2-34.77,10.2h-15.87c-2.24,0-3.07-2.93-1.18-4.11l38.51-24.03c1.84-1.15,3.16-2.99,3.65-5.1l5.5-23.56Z"/>
  <g>
    <path class="cls-1" d="M452.94,72.76c-22.33,7.98-44.59,18.25-61.2,28.65-1.09.68-2.15,1.36-3.19,2.04-.17.11-.33.22-.5.33-.9.6-1.78,1.19-2.64,1.79-.24.16-.46.33-.69.49-.77.54-1.54,1.09-2.27,1.63-.27.2-.52.39-.79.59-.68.51-1.34,1.01-1.99,1.52-.28.22-.55.44-.83.66-.6.48-1.18.95-1.75,1.43-.28.24-.56.48-.83.71-.53.45-1.04.91-1.53,1.36-.28.25-.54.5-.81.75-.46.43-.91.87-1.34,1.3-.26.26-.52.52-.77.78-.4.42-.78.83-1.16,1.25-.24.27-.48.53-.7.8-.34.4-.67.8-.98,1.2-.21.27-.43.54-.62.81-.29.39-.55.78-.81,1.16-.18.27-.37.54-.53.81-.23.38-.44.75-.64,1.13-.15.27-.3.54-.43.8-.18.37-.33.73-.48,1.1-.11.26-.22.53-.32.79-.13.37-.22.72-.31,1.08-.07.25-.15.5-.19.75-.07.37-.1.73-.14,1.09-.02.23-.06.47-.07.69-.01.39.03.77.06,1.16.02.19.01.38.04.57.09.57.22,1.12.42,1.67,2.33,6.52,11.55,8.74,21.82,9.04,1.15.03,2.31.04,3.47.03.63,0,1.25-.03,1.88-.05.51-.01,1.01-.02,1.52-.04.93-.04,1.85-.09,2.77-.15.18-.01.37-.02.55-.03.58-.04,1.15-.09,1.73-.14l45.4-28.32c1.88-1.17,3.21-3.04,3.72-5.2l5.53-23.82c1.37-5.87,4.4-11.16,8.64-15.32-3.02,1-6.04,2.03-9.03,3.1ZM400.76,137.82c-18.01,1.73-29.88-.37-31.76-5.62-1.96-5.49,6.6-15.12,23.18-25.87,1.21,11.45,5.17,22.07,11.19,31.21-.88.1-1.75.2-2.61.28Z"/>
    <path class="cls-1" d="M560.06,66.32c-.02-.19-.01-.38-.04-.57-.09-.56-.22-1.11-.41-1.64,0,0,0-.01,0-.02,0,0,0-.01,0-.02-.19-.53-.43-1.02-.71-1.5-.1-.17-.22-.32-.33-.48-.21-.31-.41-.61-.66-.9-.15-.18-.33-.34-.5-.51-.24-.24-.48-.48-.75-.71-.2-.17-.42-.33-.64-.49-.27-.2-.55-.4-.85-.59-.25-.16-.51-.31-.78-.45-.31-.17-.62-.33-.95-.49-.3-.14-.6-.28-.91-.4-.34-.14-.69-.27-1.05-.4-.34-.12-.68-.24-1.04-.35-.36-.11-.74-.21-1.12-.31-.39-.1-.78-.21-1.19-.3-.37-.09-.76-.16-1.15-.23-.45-.09-.89-.18-1.35-.26-.35-.06-.72-.1-1.08-.15-2.03-.28-4.22-.46-6.56-.53-.25,0-.48-.02-.73-.03-.7-.02-1.43-.01-2.15-.01-.34,0-.68,0-1.02,0-.72,0-1.45.03-2.19.06-.38.01-.75.02-1.14.04-.74.03-1.49.08-2.25.12-.4.03-.81.05-1.22.08-.77.05-1.54.12-2.33.19-.2.02-.41.04-.61.06l-43.91,27.39c-1.86,1.15-3.18,3-3.68,5.13l-5.82,24.85c-1.37,5.87-4.39,11.15-8.62,15.3,3.09-1.02,6.19-2.09,9.31-3.2,22.28-7.96,44.49-18.21,61.1-28.58h0c1.14-.71,2.25-1.42,3.33-2.13.11-.08.22-.15.34-.23.96-.63,1.9-1.27,2.81-1.9.19-.13.37-.26.56-.39.82-.57,1.63-1.15,2.41-1.72.23-.17.46-.34.69-.52.71-.53,1.41-1.06,2.08-1.59.26-.2.5-.4.75-.6.62-.5,1.23-1,1.82-1.49.26-.22.52-.44.77-.66.55-.47,1.08-.94,1.59-1.41.26-.24.51-.47.76-.71.48-.45.94-.9,1.38-1.34.25-.25.49-.5.73-.74.41-.43.81-.86,1.19-1.28.23-.26.46-.51.67-.77.35-.41.68-.82,1.01-1.23.21-.26.41-.52.6-.78.3-.4.57-.79.83-1.19.18-.26.35-.53.52-.79.24-.39.45-.77.66-1.15.14-.26.29-.52.42-.78.18-.38.34-.75.49-1.12.1-.26.22-.51.31-.77.13-.37.22-.73.32-1.1.06-.25.14-.49.19-.74.07-.37.1-.73.14-1.1.02-.23.06-.46.07-.69.01-.39-.03-.77-.06-1.16ZM532.37,91.4c-1.2-11.43-5.14-22.04-11.14-31.18,6.29-.7,11.89-.98,16.63-.84,10.05.3,16.34,2.43,17.67,6.16,1.96,5.49-6.6,15.12-23.17,25.87Z"/>
    <path class="cls-1" d="M514.94,52.04c-12.91-14.52-31.7-23.69-52.66-23.69-37.95,0-68.88,30-70.41,67.58,18.56-11.19,41.72-21.08,59.55-27.45,22.41-8.01,44.95-13.77,63.53-16.44Z"/>
    <path class="cls-1" d="M409.67,145.69c12.91,14.48,31.68,23.63,52.61,23.63,37.93,0,68.85-29.96,70.41-67.51-18.56,11.19-41.72,21.08-59.55,27.45-22.61,8.08-44.8,13.81-63.47,16.43Z"/>
  </g>
</svg>